<svg width="22" height="27" viewBox="0 0 22 27" fill="none" xmlns="http://www.w3.org/2000/svg">
<path d="M4.7631 27C3.44758 27 2.32485 26.5388 1.39491 25.6163C0.46497 24.6938 0 23.58 0 22.275V4.725C0 3.42 0.46497 2.30625 1.39491 1.38375C2.32485 0.46125 3.44758 0 4.7631 0H19.0524C19.8009 0 20.4417 0.264375 20.9747 0.793125C21.5077 1.32188 21.7742 1.9575 21.7742 2.7V18.9338C21.7742 19.2938 21.6835 19.62 21.502 19.9125C21.3206 20.205 21.0711 20.43 20.7535 20.5875C20.436 20.745 20.1865 20.9756 20.005 21.2794C19.8236 21.5831 19.7329 21.915 19.7329 22.275C19.7329 22.635 19.8236 22.9725 20.005 23.2875C20.1865 23.6025 20.436 23.8275 20.7535 23.9625C21.0484 24.075 21.2922 24.2438 21.485 24.4688C21.6778 24.6938 21.7742 24.9638 21.7742 25.2788V25.6163C21.7742 25.9988 21.6438 26.325 21.3829 26.595C21.1221 26.865 20.7989 27 20.4133 27H4.7631ZM8.94783 12.4538H12.7923L13.4728 14.3438C13.5181 14.5013 13.6032 14.625 13.7279 14.715C13.8527 14.805 14.0058 14.85 14.1872 14.85C14.4594 14.85 14.6749 14.7375 14.8337 14.5125C14.9924 14.2875 15.0151 14.0513 14.9017 13.8038L11.9078 5.90625C11.8624 5.74875 11.7717 5.625 11.6356 5.535C11.4995 5.445 11.3407 5.4 11.1593 5.4H10.5469C10.3654 5.4 10.2067 5.445 10.0706 5.535C9.93447 5.625 9.84375 5.74875 9.79839 5.90625L6.80443 13.8375C6.69103 14.085 6.71938 14.3156 6.88949 14.5294C7.0596 14.7431 7.28075 14.85 7.55292 14.85C7.73437 14.85 7.88747 14.805 8.01222 14.715C8.13697 14.625 8.22203 14.5013 8.26739 14.3438L8.94783 12.4538ZM9.42414 11.07L10.8191 7.155H10.9211L12.282 11.07H9.42414ZM4.7631 24.3H17.4534C17.3173 23.985 17.2096 23.6644 17.1302 23.3381C17.0508 23.0119 17.0111 22.6575 17.0111 22.275C17.0111 21.915 17.0451 21.5663 17.1132 21.2288C17.1812 20.8913 17.2946 20.565 17.4534 20.25H4.7631C4.17339 20.25 3.68574 20.4469 3.30015 20.8406C2.91457 21.2344 2.72177 21.7125 2.72177 22.275C2.72177 22.86 2.91457 23.3438 3.30015 23.7263C3.68574 24.1088 4.17339 24.3 4.7631 24.3Z" fill="#E1D5C9"/>
</svg>
