<svg width="28" height="30" viewBox="0 0 28 30" fill="none" xmlns="http://www.w3.org/2000/svg">
<path d="M24.2963 3H17.9489C17.3111 1.26 15.6407 0 13.6667 0C11.6926 0 10.0222 1.26 9.38445 3H3.03704C1.36667 3 0 4.35 0 6V27C0 28.65 1.36667 30 3.03704 30H24.2963C25.9667 30 27.3333 28.65 27.3333 27V6C27.3333 4.35 25.9667 3 24.2963 3ZM13.6667 3C14.5019 3 15.1852 3.675 15.1852 4.5C15.1852 5.325 14.5019 6 13.6667 6C12.8315 6 12.1481 5.325 12.1481 4.5C12.1481 3.675 12.8315 3 13.6667 3ZM10.6296 24L4.55556 18L6.69667 15.885L10.6296 19.755L20.6367 9.87L22.7778 12L10.6296 24Z" fill="#202224"/>
</svg>
