<svg width="27" height="27" viewBox="0 0 27 27" fill="none" xmlns="http://www.w3.org/2000/svg">
<path d="M18.495 16.47C18.7425 16.5825 18.9959 16.5938 19.2551 16.5038C19.5134 16.4138 19.6875 16.245 19.7775 15.9975C19.9575 15.5925 20.0812 15.1821 20.1487 14.7663C20.2162 14.3496 20.25 13.9275 20.25 13.5C20.25 12.645 20.0871 11.7954 19.7613 10.9512C19.4346 10.1079 18.945 9.36 18.2925 8.7075C17.64 8.055 16.9034 7.57125 16.0826 7.25625C15.2608 6.94125 14.4225 6.78375 13.5675 6.78375L14.175 6.17625C14.3775 5.97375 14.4734 5.7375 14.4626 5.4675C14.4509 5.1975 14.3438 4.96125 14.1413 4.75875C13.9388 4.55625 13.7025 4.455 13.4325 4.455C13.1625 4.455 12.9263 4.55625 12.7238 4.75875L10.0575 7.39125C9.9225 7.52625 9.855 7.68375 9.855 7.86375C9.855 8.04375 9.9225 8.20125 10.0575 8.33625L12.7238 10.9688C12.9263 11.1488 13.1625 11.2442 13.4325 11.255C13.7025 11.2667 13.9388 11.1713 14.1413 10.9688C14.3438 10.7663 14.445 10.53 14.445 10.26C14.445 9.99 14.3438 9.75375 14.1413 9.55125L13.365 8.775C13.9725 8.775 14.5912 8.8929 15.2212 9.1287C15.8512 9.3654 16.3913 9.70875 16.8413 10.1587C17.2913 10.6087 17.6346 11.1263 17.8713 11.7113C18.1071 12.2963 18.225 12.8813 18.225 13.4663C18.225 13.7363 18.2084 14.0063 18.1751 14.2762C18.1409 14.5463 18.0675 14.805 17.955 15.0525C17.8425 15.3675 17.8371 15.6542 17.9388 15.9124C18.0396 16.1716 18.225 16.3575 18.495 16.47ZM12.8587 22.2413C13.0612 22.4438 13.2975 22.545 13.5675 22.545C13.8375 22.545 14.0737 22.4438 14.2762 22.2413L16.9425 19.6087C17.0775 19.4737 17.145 19.3162 17.145 19.1362C17.145 18.9562 17.0775 18.7987 16.9425 18.6637L14.2762 16.0312C14.0737 15.8513 13.8375 15.7554 13.5675 15.7437C13.2975 15.7329 13.0612 15.8288 12.8587 16.0312C12.6562 16.2337 12.555 16.47 12.555 16.74C12.555 17.01 12.6562 17.2463 12.8587 17.4488L13.6012 18.1913C12.9712 18.2138 12.3584 18.1125 11.7626 17.8875C11.1659 17.6625 10.6312 17.3138 10.1587 16.8413C9.70875 16.3913 9.3654 15.8737 9.1287 15.2887C8.8929 14.7037 8.775 14.1187 8.775 13.5337C8.775 13.2413 8.7921 12.9654 8.8263 12.7062C8.8596 12.4479 8.9325 12.1838 9.045 11.9137C9.135 11.6663 9.14625 11.4241 9.07875 11.1874C9.01125 10.9516 8.87625 10.7663 8.67375 10.6313C8.40375 10.4513 8.11665 10.4062 7.81245 10.4962C7.50915 10.5862 7.30125 10.7663 7.18875 11.0363C7.00875 11.4413 6.8904 11.8404 6.8337 12.2337C6.7779 12.6279 6.75 13.05 6.75 13.5C6.75 14.355 6.91875 15.1988 7.25625 16.0312C7.59375 16.8638 8.08875 17.6063 8.74125 18.2587C9.39375 18.9112 10.125 19.4009 10.935 19.7276C11.745 20.0534 12.5775 20.2275 13.4325 20.25L12.8587 20.8237C12.6562 21.0262 12.555 21.2625 12.555 21.5325C12.555 21.8025 12.6562 22.0388 12.8587 22.2413ZM13.5 27C11.6325 27 9.8775 26.6454 8.235 25.9362C6.5925 25.2279 5.16375 24.2663 3.94875 23.0513C2.73375 21.8363 1.7721 20.4075 1.0638 18.765C0.3546 17.1225 0 15.3675 0 13.5C0 11.6325 0.3546 9.8775 1.0638 8.235C1.7721 6.5925 2.73375 5.16375 3.94875 3.94875C5.16375 2.73375 6.5925 1.77165 8.235 1.06245C9.8775 0.35415 11.6325 0 13.5 0C15.3675 0 17.1225 0.35415 18.765 1.06245C20.4075 1.77165 21.8363 2.73375 23.0513 3.94875C24.2663 5.16375 25.2279 6.5925 25.9362 8.235C26.6454 9.8775 27 11.6325 27 13.5C27 15.3675 26.6454 17.1225 25.9362 18.765C25.2279 20.4075 24.2663 21.8363 23.0513 23.0513C21.8363 24.2663 20.4075 25.2279 18.765 25.9362C17.1225 26.6454 15.3675 27 13.5 27Z" fill="#202224"/>
</svg>
