<svg width="34" height="34" viewBox="0 0 34 34" fill="none" xmlns="http://www.w3.org/2000/svg">
<path d="M15.81 21.76C16.1217 22.0717 16.5183 22.2275 17 22.2275C17.4817 22.2275 17.8783 22.0717 18.19 21.76L23.46 16.49C23.7717 16.1783 23.9275 15.7885 23.9275 15.3204C23.9275 14.8535 23.7575 14.45 23.4175 14.11C23.1058 13.7983 22.7092 13.6425 22.2275 13.6425C21.7458 13.6425 21.3492 13.7983 21.0375 14.11L17 18.1475L12.92 14.0675C12.6083 13.7558 12.219 13.6 11.7521 13.6C11.284 13.6 10.88 13.77 10.54 14.11C10.2283 14.4217 10.0725 14.8183 10.0725 15.3C10.0725 15.7817 10.2283 16.1783 10.54 16.49L15.81 21.76ZM17 34C14.6483 34 12.4383 33.5535 10.37 32.6604C8.30167 31.7685 6.5025 30.5575 4.9725 29.0275C3.4425 27.4975 2.23153 25.6983 1.3396 23.63C0.446534 21.5617 0 19.3517 0 17C0 14.6483 0.446534 12.4383 1.3396 10.37C2.23153 8.30167 3.4425 6.5025 4.9725 4.9725C6.5025 3.4425 8.30167 2.23097 10.37 1.3379C12.4383 0.445967 14.6483 0 17 0C19.3517 0 21.5617 0.445967 23.63 1.3379C25.6983 2.23097 27.4975 3.4425 29.0275 4.9725C30.5575 6.5025 31.7685 8.30167 32.6604 10.37C33.5535 12.4383 34 14.6483 34 17C34 19.3517 33.5535 21.5617 32.6604 23.63C31.7685 25.6983 30.5575 27.4975 29.0275 29.0275C27.4975 30.5575 25.6983 31.7685 23.63 32.6604C21.5617 33.5535 19.3517 34 17 34Z" fill="#C49450"/>
</svg>
