
<svg width="57" height="57" viewBox="0 0 57 57" fill="none" xmlns="http://www.w3.org/2000/svg">
<path d="M30.495 37.905L37.905 30.495C38.4275 29.9725 38.6887 29.3075 38.6887 28.5C38.6887 27.6925 38.4275 27.0275 37.905 26.505L30.4237 19.0238C29.9012 18.5012 29.2486 18.2514 28.4658 18.2742C27.6811 18.2989 27.0275 18.5725 26.505 19.095C25.9825 19.6175 25.7212 20.2825 25.7212 21.09C25.7212 21.8975 25.9825 22.5625 26.505 23.085L29.07 25.65H19.8787C19.0713 25.65 18.4062 25.9226 17.8837 26.4679C17.3612 27.0151 17.1 27.6925 17.1 28.5C17.1 29.3075 17.3736 29.9839 17.9208 30.5292C18.4661 31.0764 19.1425 31.35 19.95 31.35H29.07L26.4337 33.9862C25.9112 34.5088 25.6614 35.1623 25.6842 35.947C25.7089 36.7298 25.9825 37.3825 26.505 37.905C27.0275 38.4275 27.6925 38.6887 28.5 38.6887C29.3075 38.6887 29.9725 38.4275 30.495 37.905ZM28.5 57C24.5575 57 20.8525 56.2514 17.385 54.7542C13.9175 53.2589 10.9012 51.2288 8.33625 48.6637C5.77125 46.0988 3.7411 43.0825 2.2458 39.615C0.7486 36.1475 0 32.4425 0 28.5C0 24.5575 0.7486 20.8525 2.2458 17.385C3.7411 13.9175 5.77125 10.9012 8.33625 8.33625C10.9012 5.77125 13.9175 3.74015 17.385 2.24295C20.8525 0.74765 24.5575 0 28.5 0C32.4425 0 36.1475 0.74765 39.615 2.24295C43.0825 3.74015 46.0988 5.77125 48.6637 8.33625C51.2288 10.9012 53.2589 13.9175 54.7542 17.385C56.2514 20.8525 57 24.5575 57 28.5C57 32.4425 56.2514 36.1475 54.7542 39.615C53.2589 43.0825 51.2288 46.0988 48.6637 48.6637C46.0988 51.2288 43.0825 53.2589 39.615 54.7542C36.1475 56.2514 32.4425 57 28.5 57Z" fill="#202224"/>
</svg>
