<svg width="24" height="27" viewBox="0 0 24 27" fill="none" xmlns="http://www.w3.org/2000/svg">
<path d="M11.88 6C12.3009 6 12.654 5.8565 12.9392 5.5695C13.2234 5.2815 13.3655 4.925 13.3655 4.5C13.3655 4.075 13.2234 3.7185 12.9392 3.4305C12.654 3.1435 12.3009 3 11.88 3C11.4591 3 11.1065 3.1435 10.8223 3.4305C10.537 3.7185 10.3944 4.075 10.3944 4.5C10.3944 4.925 10.537 5.2815 10.8223 5.5695C11.1065 5.8565 11.4591 6 11.88 6ZM16.0767 6H18.6765C19.4192 6 20.063 6.25 20.6077 6.75C21.1524 7.25 21.4867 7.8625 21.6105 8.5875L23.7274 23.5875C23.8512 24.4875 23.6224 25.281 23.0411 25.968C22.4587 26.656 21.7095 27 20.7934 27H2.96656C2.05045 27 1.30173 26.656 0.720374 25.968C0.138031 25.281 -0.091242 24.4875 0.0325555 23.5875L2.14949 8.5875C2.27329 7.8625 2.60754 7.25 3.15225 6.75C3.69696 6.25 4.34071 6 5.08349 6H7.68324C7.60896 5.75 7.54706 5.506 7.49755 5.268C7.44803 5.031 7.42327 4.775 7.42327 4.5C7.42327 3.25 7.85656 2.1875 8.72314 1.3125C9.58972 0.4375 10.642 0 11.88 0C13.118 0 14.1702 0.4375 15.0368 1.3125C15.9034 2.1875 16.3367 3.25 16.3367 4.5C16.3367 4.775 16.3119 5.031 16.2624 5.268C16.2129 5.506 16.151 5.75 16.0767 6Z" fill="#E1D5C9"/>
</svg>
