<svg width="22" height="27" viewBox="0 0 22 27" fill="none" xmlns="http://www.w3.org/2000/svg">
<path d="M4.725 27C3.42 27 2.30625 26.5388 1.38375 25.6163C0.46125 24.6938 0 23.58 0 22.275V4.725C0 3.42 0.46125 2.30625 1.38375 1.38375C2.30625 0.46125 3.42 0 4.725 0H18.9C19.6425 0 20.2781 0.264375 20.8069 0.793125C21.3356 1.32188 21.6 1.9575 21.6 2.7V19.6088C21.6 19.7888 21.5269 19.9519 21.3806 20.0981C21.2344 20.2444 20.97 20.4075 20.5875 20.5875C20.2725 20.745 20.025 20.97 19.845 21.2625C19.665 21.555 19.575 21.8925 19.575 22.275C19.575 22.6575 19.665 23.0006 19.845 23.3044C20.025 23.6081 20.2725 23.8275 20.5875 23.9625C20.9025 24.0975 21.15 24.2831 21.33 24.5194C21.51 24.7556 21.6 25.0088 21.6 25.2788V25.6163C21.6 25.9988 21.4706 26.325 21.2119 26.595C20.9531 26.865 20.6325 27 20.25 27H4.725ZM6.75 17.55C7.1325 17.55 7.45313 17.4206 7.71188 17.1619C7.97063 16.9031 8.1 16.5825 8.1 16.2V4.05C8.1 3.6675 7.97063 3.34688 7.71188 3.08813C7.45313 2.82938 7.1325 2.7 6.75 2.7C6.3675 2.7 6.04688 2.82938 5.78813 3.08813C5.52938 3.34688 5.4 3.6675 5.4 4.05V16.2C5.4 16.5825 5.52938 16.9031 5.78813 17.1619C6.04688 17.4206 6.3675 17.55 6.75 17.55ZM4.725 24.3H17.3138C17.1788 23.985 17.0719 23.6644 16.9931 23.3381C16.9144 23.0119 16.875 22.6575 16.875 22.275C16.875 21.915 16.9088 21.5663 16.9763 21.2288C17.0438 20.8913 17.1562 20.565 17.3138 20.25H4.725C4.14 20.25 3.65625 20.4469 3.27375 20.8406C2.89125 21.2344 2.7 21.7125 2.7 22.275C2.7 22.86 2.89125 23.3438 3.27375 23.7263C3.65625 24.1088 4.14 24.3 4.725 24.3Z" fill="#E1D5C9"/>
</svg>
