<svg width="29" height="29" viewBox="0 0 29 29" fill="none" xmlns="http://www.w3.org/2000/svg">
<path d="M14.5 0C6.496 0 0 6.496 0 14.5C0 22.504 6.496 29 14.5 29C22.504 29 29 22.504 29 14.5C29 6.496 22.504 0 14.5 0ZM14.5 5.8C17.2985 5.8 19.575 8.0765 19.575 10.875C19.575 13.6735 17.2985 15.95 14.5 15.95C11.7015 15.95 9.425 13.6735 9.425 10.875C9.425 8.0765 11.7015 5.8 14.5 5.8ZM14.5 26.1C11.5565 26.1 8.0765 24.911 5.597 21.924C8.0475 20.01 11.136 18.85 14.5 18.85C17.864 18.85 20.9525 20.01 23.403 21.924C20.9235 24.911 17.4435 26.1 14.5 26.1Z" fill="#202224"/>
</svg>
