<svg width="27" height="30" viewBox="0 0 27 30" fill="none" xmlns="http://www.w3.org/2000/svg">
<path d="M3 30C2.175 30 1.46875 29.6736 0.88125 29.0208C0.29375 28.3681 0 27.5833 0 26.6667V3.33333C0 2.41667 0.29375 1.63194 0.88125 0.979167C1.46875 0.326389 2.175 0 3 0H19.5L27 8.33333V26.6667C27 27.5833 26.7063 28.3681 26.1188 29.0208C25.5313 29.6736 24.825 30 24 30H3ZM6 23.3333H21V20H6V23.3333ZM6 16.6667H21V13.3333H6V16.6667ZM18 10H24L18 3.33333V10ZM6 10H13.5V6.66667H6V10Z" fill="#C49450"/>
</svg>
